<?xml version="1.0" standalone="no"?><!DOCTYPE svg PUBLIC "-//W3C//DTD SVG 1.1//EN" "http://www.w3.org/Graphics/SVG/1.1/DTD/svg11.dtd"><svg t="1609918091065" class="icon" viewBox="0 0 1024 1024" version="1.1" xmlns="http://www.w3.org/2000/svg" p-id="8235" xmlns:xlink="http://www.w3.org/1999/xlink" width="200" height="200"><defs><style type="text/css"></style></defs><path d="M517.310379 515.142877m-499.031116 0a499.031116 499.031116 0 1 0 998.062231 0 499.031116 499.031116 0 1 0-998.062231 0Z" fill="#E9EAEB" p-id="8236"></path><path d="M901.75291 752.412051V446.144077a64.519297 64.519297 0 0 0-23.770267-48.768786L573.23192 122.82509a95.87582 95.87582 0 0 0-128.243844 0L140.237353 397.375291a64.519297 64.519297 0 0 0-23.770268 48.768786v306.267974z" fill="#E9EAEB" p-id="8237"></path><path d="M918.153672 768.812813H100.066323V446.144077a80.486559 80.486559 0 0 1 29.550272-61.268045l304.389473-274.044451a111.987582 111.987582 0 0 1 150.13561 0L888.675651 384.876032a80.486559 80.486559 0 0 1 29.550272 61.268045z m-785.358075-32.729274h752.628802V446.144077a48.335285 48.335285 0 0 0-17.556763-36.125027l-0.794751-0.65025-304.750723-274.550201a79.475058 79.475058 0 0 0-106.352078 0l-305.617724 275.344951a48.335285 48.335285 0 0 0-17.556763 36.125027z" fill="#2A5082" p-id="8238"></path><path d="M230.983419 212.487406h556.253158v523.523883H230.983419z" fill="#FFFFFF" p-id="8239"></path><path d="M803.637339 752.412051H214.582657v-556.325407h588.982432z m-556.325408-32.729274h523.596134V228.888168H247.311931z" fill="#2A5082" p-id="8240"></path><path d="M885.424399 474.249347c-35.619276 28.900021-231.70592 190.81239-252.369435 202.805899-22.614267 13.07726-69.865801 26.226769-123.908841 26.226769s-101.150074-13.14951-123.908841-26.226769c-20.735765-11.993509-216.750159-174.122628-252.369435-202.805899h-16.400762V867.000635a49.057786 49.057786 0 0 0 49.057786 49.057786H852.550624a49.057786 49.057786 0 0 0 49.057786-49.057786V474.249347z" fill="#A3D4FF" p-id="8241"></path><path d="M852.550624 932.025683H165.524871a65.530798 65.530798 0 0 1-65.458548-65.025048V457.920835h38.509278l4.479504 3.612503c8.381006 6.791505 25.721019 20.952515 47.540535 38.870529 61.051295 49.997037 187.850138 154.037113 202.733648 162.490369 20.085515 11.560008 65.025048 24.059268 115.600085 24.059267s95.65907-12.499259 115.600084-24.059267c14.450011-8.453256 141.682354-112.493332 202.733649-162.490369 21.675016-17.918013 39.159529-32.079023 47.612785-38.870529l4.479503-3.612503h38.509278V867.000635a65.530798 65.530798 0 0 1-65.314048 65.025048zM132.795597 495.346363V867.000635a32.729274 32.729274 0 0 0 32.729274 32.729274H852.550624a32.729274 32.729274 0 0 0 32.729274-32.729274V495.346363l-37.136527 30.345022c-100.066323 82.07606-191.24589 156.493615-206.924151 165.524871-24.492768 14.450011-74.851055 28.466521-132.073097 28.466521s-107.580329-14.450011-132.073097-28.466521C361.250265 682.185 270.070698 607.767445 169.932124 525.691385z" fill="#2A5082" p-id="8242"></path><path d="M169.953799 839.343315L348.967756 647.9746l23.900317 22.354166-179.021181 191.37594zM644.875072 670.350441l23.900318-22.368616 179.050081 191.339815-23.893093 22.368616zM345.499753 359.733013h310.891978v32.729274H345.499753zM345.499753 425.191561h310.891978v32.729274H345.499753zM345.499753 490.650109h212.704156v32.729274H345.499753z" fill="#2A5082" p-id="8243"></path></svg>